<svg xmlns="http://www.w3.org/2000/svg" version="1.1" xmlns:xlink="http://www.w3.org/1999/xlink"
    xmlns:svgjs="http://svgjs.com/svgjs" width="1440" height="560" preserveAspectRatio="none" viewBox="0 0 1440 560">
    <g mask="url(&quot;#SvgjsMask1010&quot;)" fill="none">
        <rect width="1440" height="560" x="0" y="0" fill="rgba(23, 23, 23, 1)"></rect>
        <path
            d="M56.03 -7.34L120.98 30.16L120.98 105.16L56.03 142.66L-8.92 105.16L-8.92 30.16zM56.03 217.66L120.98 255.16L120.98 330.16L56.03 367.66L-8.92 330.16L-8.92 255.16zM56.03 442.66L120.98 480.16L120.98 555.16L56.03 592.66L-8.92 555.16L-8.92 480.16zM250.89 330.16L315.85 367.66L315.85 442.66L250.89 480.16L185.94 442.66L185.94 367.66zM185.94 442.66L250.89 480.16L250.89 555.16L185.94 592.66L120.98 555.16L120.98 480.16zM315.85 217.66L380.8 255.16L380.8 330.16L315.85 367.66L250.89 330.16L250.89 255.16zM380.8 555.16L445.75 592.66L445.75 667.66L380.8 705.16L315.85 667.66L315.85 592.66zM510.71 105.16L575.66 142.66L575.66 217.66L510.71 255.16L445.75 217.66L445.75 142.66zM445.75 442.66L510.71 480.16L510.71 555.16L445.75 592.66L380.8 555.16L380.8 480.16zM510.71 555.16L575.66 592.66L575.66 667.66L510.71 705.16L445.75 667.66L445.75 592.66zM640.61 105.16L705.57 142.66L705.57 217.66L640.61 255.16L575.66 217.66L575.66 142.66zM575.66 217.66L640.61 255.16L640.61 330.16L575.66 367.66L510.71 330.16L510.71 255.16zM770.52 330.16L835.48 367.66L835.48 442.66L770.52 480.16L705.57 442.66L705.57 367.66zM705.57 442.66L770.52 480.16L770.52 555.16L705.57 592.66L640.61 555.16L640.61 480.16zM900.43 555.16L965.38 592.66L965.38 667.66L900.43 705.16L835.47 667.66L835.47 592.66zM1030.34 105.16L1095.29 142.66L1095.29 217.66L1030.34 255.16L965.38 217.66L965.38 142.66zM965.38 442.66L1030.34 480.16L1030.34 555.16L965.38 592.66L900.43 555.16L900.43 480.16zM1095.29 -7.34L1160.24 30.16L1160.24 105.16L1095.29 142.66L1030.34 105.16L1030.34 30.16zM1160.24 330.16L1225.2 367.66L1225.2 442.66L1160.24 480.16L1095.29 442.66L1095.29 367.66zM1160.24 555.16L1225.2 592.66L1225.2 667.66L1160.24 705.16L1095.29 667.66L1095.29 592.66zM1225.2 -7.34L1290.15 30.16L1290.15 105.16L1225.2 142.66L1160.24 105.16L1160.24 30.16zM1290.15 105.16L1355.1 142.66L1355.1 217.66L1290.15 255.16L1225.2 217.66L1225.2 142.66zM1225.2 442.66L1290.15 480.16L1290.15 555.16L1225.2 592.66L1160.24 555.16L1160.24 480.16zM1420.06 555.16L1485.01 592.66L1485.01 667.66L1420.06 705.16L1355.11 667.66L1355.11 592.66zM1549.97 105.16L1614.92 142.66L1614.92 217.66L1549.97 255.16L1485.01 217.66L1485.01 142.66zM1485.01 442.66L1549.97 480.16L1549.97 555.16L1485.01 592.66L1420.06 555.16L1420.06 480.16zM1549.97 555.16L1614.92 592.66L1614.92 667.66L1549.97 705.16L1485.01 667.66L1485.01 592.66z"
            stroke="rgba(3, 105, 161, 0.82)" stroke-width="2"></path>
        <path
            d="M48.53 -7.34 a7.5 7.5 0 1 0 15 0 a7.5 7.5 0 1 0 -15 0zM113.48 30.16 a7.5 7.5 0 1 0 15 0 a7.5 7.5 0 1 0 -15 0zM113.48 105.16 a7.5 7.5 0 1 0 15 0 a7.5 7.5 0 1 0 -15 0zM48.53 142.66 a7.5 7.5 0 1 0 15 0 a7.5 7.5 0 1 0 -15 0zM-16.42 105.16 a7.5 7.5 0 1 0 15 0 a7.5 7.5 0 1 0 -15 0zM-16.42 30.16 a7.5 7.5 0 1 0 15 0 a7.5 7.5 0 1 0 -15 0zM48.53 217.66 a7.5 7.5 0 1 0 15 0 a7.5 7.5 0 1 0 -15 0zM113.48 255.16 a7.5 7.5 0 1 0 15 0 a7.5 7.5 0 1 0 -15 0zM113.48 330.16 a7.5 7.5 0 1 0 15 0 a7.5 7.5 0 1 0 -15 0zM48.53 367.66 a7.5 7.5 0 1 0 15 0 a7.5 7.5 0 1 0 -15 0zM-16.42 330.16 a7.5 7.5 0 1 0 15 0 a7.5 7.5 0 1 0 -15 0zM-16.42 255.16 a7.5 7.5 0 1 0 15 0 a7.5 7.5 0 1 0 -15 0zM48.53 442.66 a7.5 7.5 0 1 0 15 0 a7.5 7.5 0 1 0 -15 0zM113.48 480.16 a7.5 7.5 0 1 0 15 0 a7.5 7.5 0 1 0 -15 0zM113.48 555.16 a7.5 7.5 0 1 0 15 0 a7.5 7.5 0 1 0 -15 0zM48.53 592.66 a7.5 7.5 0 1 0 15 0 a7.5 7.5 0 1 0 -15 0zM-16.42 555.16 a7.5 7.5 0 1 0 15 0 a7.5 7.5 0 1 0 -15 0zM-16.42 480.16 a7.5 7.5 0 1 0 15 0 a7.5 7.5 0 1 0 -15 0zM243.39 330.16 a7.5 7.5 0 1 0 15 0 a7.5 7.5 0 1 0 -15 0zM308.35 367.66 a7.5 7.5 0 1 0 15 0 a7.5 7.5 0 1 0 -15 0zM308.35 442.66 a7.5 7.5 0 1 0 15 0 a7.5 7.5 0 1 0 -15 0zM243.39 480.16 a7.5 7.5 0 1 0 15 0 a7.5 7.5 0 1 0 -15 0zM178.44 442.66 a7.5 7.5 0 1 0 15 0 a7.5 7.5 0 1 0 -15 0zM178.44 367.66 a7.5 7.5 0 1 0 15 0 a7.5 7.5 0 1 0 -15 0zM243.39 555.16 a7.5 7.5 0 1 0 15 0 a7.5 7.5 0 1 0 -15 0zM178.44 592.66 a7.5 7.5 0 1 0 15 0 a7.5 7.5 0 1 0 -15 0zM308.35 217.66 a7.5 7.5 0 1 0 15 0 a7.5 7.5 0 1 0 -15 0zM373.3 255.16 a7.5 7.5 0 1 0 15 0 a7.5 7.5 0 1 0 -15 0zM373.3 330.16 a7.5 7.5 0 1 0 15 0 a7.5 7.5 0 1 0 -15 0zM243.39 255.16 a7.5 7.5 0 1 0 15 0 a7.5 7.5 0 1 0 -15 0zM373.3 555.16 a7.5 7.5 0 1 0 15 0 a7.5 7.5 0 1 0 -15 0zM438.25 592.66 a7.5 7.5 0 1 0 15 0 a7.5 7.5 0 1 0 -15 0zM438.25 667.66 a7.5 7.5 0 1 0 15 0 a7.5 7.5 0 1 0 -15 0zM373.3 705.16 a7.5 7.5 0 1 0 15 0 a7.5 7.5 0 1 0 -15 0zM308.35 667.66 a7.5 7.5 0 1 0 15 0 a7.5 7.5 0 1 0 -15 0zM308.35 592.66 a7.5 7.5 0 1 0 15 0 a7.5 7.5 0 1 0 -15 0zM503.21 105.16 a7.5 7.5 0 1 0 15 0 a7.5 7.5 0 1 0 -15 0zM568.16 142.66 a7.5 7.5 0 1 0 15 0 a7.5 7.5 0 1 0 -15 0zM568.16 217.66 a7.5 7.5 0 1 0 15 0 a7.5 7.5 0 1 0 -15 0zM503.21 255.16 a7.5 7.5 0 1 0 15 0 a7.5 7.5 0 1 0 -15 0zM438.25 217.66 a7.5 7.5 0 1 0 15 0 a7.5 7.5 0 1 0 -15 0zM438.25 142.66 a7.5 7.5 0 1 0 15 0 a7.5 7.5 0 1 0 -15 0zM438.25 442.66 a7.5 7.5 0 1 0 15 0 a7.5 7.5 0 1 0 -15 0zM503.21 480.16 a7.5 7.5 0 1 0 15 0 a7.5 7.5 0 1 0 -15 0zM503.21 555.16 a7.5 7.5 0 1 0 15 0 a7.5 7.5 0 1 0 -15 0zM373.3 480.16 a7.5 7.5 0 1 0 15 0 a7.5 7.5 0 1 0 -15 0zM568.16 592.66 a7.5 7.5 0 1 0 15 0 a7.5 7.5 0 1 0 -15 0zM568.16 667.66 a7.5 7.5 0 1 0 15 0 a7.5 7.5 0 1 0 -15 0zM503.21 705.16 a7.5 7.5 0 1 0 15 0 a7.5 7.5 0 1 0 -15 0zM633.11 105.16 a7.5 7.5 0 1 0 15 0 a7.5 7.5 0 1 0 -15 0zM698.07 142.66 a7.5 7.5 0 1 0 15 0 a7.5 7.5 0 1 0 -15 0zM698.07 217.66 a7.5 7.5 0 1 0 15 0 a7.5 7.5 0 1 0 -15 0zM633.11 255.16 a7.5 7.5 0 1 0 15 0 a7.5 7.5 0 1 0 -15 0zM633.11 330.16 a7.5 7.5 0 1 0 15 0 a7.5 7.5 0 1 0 -15 0zM568.16 367.66 a7.5 7.5 0 1 0 15 0 a7.5 7.5 0 1 0 -15 0zM503.21 330.16 a7.5 7.5 0 1 0 15 0 a7.5 7.5 0 1 0 -15 0zM763.02 330.16 a7.5 7.5 0 1 0 15 0 a7.5 7.5 0 1 0 -15 0zM827.98 367.66 a7.5 7.5 0 1 0 15 0 a7.5 7.5 0 1 0 -15 0zM827.98 442.66 a7.5 7.5 0 1 0 15 0 a7.5 7.5 0 1 0 -15 0zM763.02 480.16 a7.5 7.5 0 1 0 15 0 a7.5 7.5 0 1 0 -15 0zM698.07 442.66 a7.5 7.5 0 1 0 15 0 a7.5 7.5 0 1 0 -15 0zM698.07 367.66 a7.5 7.5 0 1 0 15 0 a7.5 7.5 0 1 0 -15 0zM763.02 555.16 a7.5 7.5 0 1 0 15 0 a7.5 7.5 0 1 0 -15 0zM698.07 592.66 a7.5 7.5 0 1 0 15 0 a7.5 7.5 0 1 0 -15 0zM633.11 555.16 a7.5 7.5 0 1 0 15 0 a7.5 7.5 0 1 0 -15 0zM633.11 480.16 a7.5 7.5 0 1 0 15 0 a7.5 7.5 0 1 0 -15 0zM892.93 555.16 a7.5 7.5 0 1 0 15 0 a7.5 7.5 0 1 0 -15 0zM957.88 592.66 a7.5 7.5 0 1 0 15 0 a7.5 7.5 0 1 0 -15 0zM957.88 667.66 a7.5 7.5 0 1 0 15 0 a7.5 7.5 0 1 0 -15 0zM892.93 705.16 a7.5 7.5 0 1 0 15 0 a7.5 7.5 0 1 0 -15 0zM827.97 667.66 a7.5 7.5 0 1 0 15 0 a7.5 7.5 0 1 0 -15 0zM827.97 592.66 a7.5 7.5 0 1 0 15 0 a7.5 7.5 0 1 0 -15 0zM1022.84 105.16 a7.5 7.5 0 1 0 15 0 a7.5 7.5 0 1 0 -15 0zM1087.79 142.66 a7.5 7.5 0 1 0 15 0 a7.5 7.5 0 1 0 -15 0zM1087.79 217.66 a7.5 7.5 0 1 0 15 0 a7.5 7.5 0 1 0 -15 0zM1022.84 255.16 a7.5 7.5 0 1 0 15 0 a7.5 7.5 0 1 0 -15 0zM957.88 217.66 a7.5 7.5 0 1 0 15 0 a7.5 7.5 0 1 0 -15 0zM957.88 142.66 a7.5 7.5 0 1 0 15 0 a7.5 7.5 0 1 0 -15 0zM957.88 442.66 a7.5 7.5 0 1 0 15 0 a7.5 7.5 0 1 0 -15 0zM1022.84 480.16 a7.5 7.5 0 1 0 15 0 a7.5 7.5 0 1 0 -15 0zM1022.84 555.16 a7.5 7.5 0 1 0 15 0 a7.5 7.5 0 1 0 -15 0zM892.93 480.16 a7.5 7.5 0 1 0 15 0 a7.5 7.5 0 1 0 -15 0zM1087.79 -7.34 a7.5 7.5 0 1 0 15 0 a7.5 7.5 0 1 0 -15 0zM1152.74 30.16 a7.5 7.5 0 1 0 15 0 a7.5 7.5 0 1 0 -15 0zM1152.74 105.16 a7.5 7.5 0 1 0 15 0 a7.5 7.5 0 1 0 -15 0zM1022.84 30.16 a7.5 7.5 0 1 0 15 0 a7.5 7.5 0 1 0 -15 0zM1152.74 330.16 a7.5 7.5 0 1 0 15 0 a7.5 7.5 0 1 0 -15 0zM1217.7 367.66 a7.5 7.5 0 1 0 15 0 a7.5 7.5 0 1 0 -15 0zM1217.7 442.66 a7.5 7.5 0 1 0 15 0 a7.5 7.5 0 1 0 -15 0zM1152.74 480.16 a7.5 7.5 0 1 0 15 0 a7.5 7.5 0 1 0 -15 0zM1087.79 442.66 a7.5 7.5 0 1 0 15 0 a7.5 7.5 0 1 0 -15 0zM1087.79 367.66 a7.5 7.5 0 1 0 15 0 a7.5 7.5 0 1 0 -15 0zM1152.74 555.16 a7.5 7.5 0 1 0 15 0 a7.5 7.5 0 1 0 -15 0zM1217.7 592.66 a7.5 7.5 0 1 0 15 0 a7.5 7.5 0 1 0 -15 0zM1217.7 667.66 a7.5 7.5 0 1 0 15 0 a7.5 7.5 0 1 0 -15 0zM1152.74 705.16 a7.5 7.5 0 1 0 15 0 a7.5 7.5 0 1 0 -15 0zM1087.79 667.66 a7.5 7.5 0 1 0 15 0 a7.5 7.5 0 1 0 -15 0zM1087.79 592.66 a7.5 7.5 0 1 0 15 0 a7.5 7.5 0 1 0 -15 0zM1217.7 -7.34 a7.5 7.5 0 1 0 15 0 a7.5 7.5 0 1 0 -15 0zM1282.65 30.16 a7.5 7.5 0 1 0 15 0 a7.5 7.5 0 1 0 -15 0zM1282.65 105.16 a7.5 7.5 0 1 0 15 0 a7.5 7.5 0 1 0 -15 0zM1217.7 142.66 a7.5 7.5 0 1 0 15 0 a7.5 7.5 0 1 0 -15 0zM1347.6 142.66 a7.5 7.5 0 1 0 15 0 a7.5 7.5 0 1 0 -15 0zM1347.6 217.66 a7.5 7.5 0 1 0 15 0 a7.5 7.5 0 1 0 -15 0zM1282.65 255.16 a7.5 7.5 0 1 0 15 0 a7.5 7.5 0 1 0 -15 0zM1217.7 217.66 a7.5 7.5 0 1 0 15 0 a7.5 7.5 0 1 0 -15 0zM1282.65 480.16 a7.5 7.5 0 1 0 15 0 a7.5 7.5 0 1 0 -15 0zM1282.65 555.16 a7.5 7.5 0 1 0 15 0 a7.5 7.5 0 1 0 -15 0zM1412.56 555.16 a7.5 7.5 0 1 0 15 0 a7.5 7.5 0 1 0 -15 0zM1477.51 592.66 a7.5 7.5 0 1 0 15 0 a7.5 7.5 0 1 0 -15 0zM1477.51 667.66 a7.5 7.5 0 1 0 15 0 a7.5 7.5 0 1 0 -15 0zM1412.56 705.16 a7.5 7.5 0 1 0 15 0 a7.5 7.5 0 1 0 -15 0zM1347.61 667.66 a7.5 7.5 0 1 0 15 0 a7.5 7.5 0 1 0 -15 0zM1347.61 592.66 a7.5 7.5 0 1 0 15 0 a7.5 7.5 0 1 0 -15 0zM1542.47 105.16 a7.5 7.5 0 1 0 15 0 a7.5 7.5 0 1 0 -15 0zM1607.42 142.66 a7.5 7.5 0 1 0 15 0 a7.5 7.5 0 1 0 -15 0zM1607.42 217.66 a7.5 7.5 0 1 0 15 0 a7.5 7.5 0 1 0 -15 0zM1542.47 255.16 a7.5 7.5 0 1 0 15 0 a7.5 7.5 0 1 0 -15 0zM1477.51 217.66 a7.5 7.5 0 1 0 15 0 a7.5 7.5 0 1 0 -15 0zM1477.51 142.66 a7.5 7.5 0 1 0 15 0 a7.5 7.5 0 1 0 -15 0zM1477.51 442.66 a7.5 7.5 0 1 0 15 0 a7.5 7.5 0 1 0 -15 0zM1542.47 480.16 a7.5 7.5 0 1 0 15 0 a7.5 7.5 0 1 0 -15 0zM1542.47 555.16 a7.5 7.5 0 1 0 15 0 a7.5 7.5 0 1 0 -15 0zM1412.56 480.16 a7.5 7.5 0 1 0 15 0 a7.5 7.5 0 1 0 -15 0zM1607.42 592.66 a7.5 7.5 0 1 0 15 0 a7.5 7.5 0 1 0 -15 0zM1607.42 667.66 a7.5 7.5 0 1 0 15 0 a7.5 7.5 0 1 0 -15 0zM1542.47 705.16 a7.5 7.5 0 1 0 15 0 a7.5 7.5 0 1 0 -15 0z"
            fill="rgba(3, 105, 161, 0.82)"></path>
        <path
            d="M22.27 -18.78L65.57 6.22L65.57 56.22L22.27 81.22L-21.03 56.22L-21.03 6.22zM65.57 356.22L108.88 381.22L108.88 431.22L65.57 456.22L22.27 431.22L22.27 381.22zM22.27 431.22L65.57 456.22L65.57 506.22L22.27 531.22L-21.03 506.22L-21.03 456.22zM108.88 -18.78L152.18 6.22L152.18 56.22L108.88 81.22L65.57 56.22L65.57 6.22zM195.48 -18.78L238.78 6.22L238.78 56.22L195.48 81.22L152.18 56.22L152.18 6.22zM195.48 131.22L238.78 156.22L238.78 206.22L195.48 231.22L152.18 206.22L152.18 156.22zM238.78 356.22L282.08 381.22L282.08 431.22L238.78 456.22L195.48 431.22L195.48 381.22zM282.08 -18.78L325.39 6.22L325.39 56.22L282.08 81.22L238.78 56.22L238.78 6.22zM325.39 206.22L368.69 231.22L368.69 281.22L325.39 306.22L282.08 281.22L282.08 231.22zM282.08 281.22L325.39 306.22L325.39 356.22L282.08 381.22L238.78 356.22L238.78 306.22zM325.39 356.22L368.69 381.22L368.69 431.22L325.39 456.22L282.08 431.22L282.08 381.22zM282.08 431.22L325.39 456.22L325.39 506.22L282.08 531.22L238.78 506.22L238.78 456.22zM325.39 506.22L368.69 531.22L368.69 581.22L325.39 606.22L282.08 581.22L282.08 531.22zM411.99 206.22L455.3 231.22L455.3 281.22L411.99 306.22L368.69 281.22L368.69 231.22zM411.99 356.22L455.3 381.22L455.3 431.22L411.99 456.22L368.69 431.22L368.69 381.22zM455.3 -18.78L498.6 6.22L498.6 56.22L455.3 81.22L411.99 56.22L411.99 6.22zM498.6 56.22L541.9 81.22L541.9 131.22L498.6 156.22L455.3 131.22L455.3 81.22zM498.6 356.22L541.9 381.22L541.9 431.22L498.6 456.22L455.3 431.22L455.3 381.22zM455.3 431.22L498.6 456.22L498.6 506.22L455.3 531.22L411.99 506.22L411.99 456.22zM498.6 506.22L541.9 531.22L541.9 581.22L498.6 606.22L455.3 581.22L455.3 531.22zM671.81 56.22L715.11 81.22L715.11 131.22L671.81 156.22L628.5 131.22L628.5 81.22zM671.81 206.22L715.11 231.22L715.11 281.22L671.81 306.22L628.5 281.22L628.5 231.22zM628.5 281.22L671.81 306.22L671.81 356.22L628.5 381.22L585.2 356.22L585.2 306.22zM628.5 431.22L671.81 456.22L671.81 506.22L628.5 531.22L585.2 506.22L585.2 456.22zM758.41 206.22L801.72 231.22L801.72 281.22L758.41 306.22L715.11 281.22L715.11 231.22zM801.72 131.22L845.02 156.22L845.02 206.22L801.72 231.22L758.41 206.22L758.41 156.22zM845.02 506.22L888.32 531.22L888.32 581.22L845.02 606.22L801.72 581.22L801.72 531.22zM931.62 206.22L974.93 231.22L974.93 281.22L931.62 306.22L888.32 281.22L888.32 231.22zM931.62 356.22L974.93 381.22L974.93 431.22L931.62 456.22L888.32 431.22L888.32 381.22zM974.93 281.22L1018.23 306.22L1018.23 356.22L974.93 381.22L931.62 356.22L931.62 306.22zM1018.23 356.22L1061.53 381.22L1061.53 431.22L1018.23 456.22L974.93 431.22L974.93 381.22zM1061.53 -18.78L1104.83 6.22L1104.83 56.22L1061.53 81.22L1018.23 56.22L1018.23 6.22zM1104.83 206.22L1148.13 231.22L1148.13 281.22L1104.83 306.22L1061.53 281.22L1061.53 231.22zM1191.44 56.22L1234.74 81.22L1234.74 131.22L1191.44 156.22L1148.13 131.22L1148.13 81.22zM1148.13 131.22L1191.44 156.22L1191.44 206.22L1148.13 231.22L1104.83 206.22L1104.83 156.22zM1191.44 206.22L1234.74 231.22L1234.74 281.22L1191.44 306.22L1148.13 281.22L1148.13 231.22zM1191.44 356.22L1234.74 381.22L1234.74 431.22L1191.44 456.22L1148.13 431.22L1148.13 381.22zM1191.44 506.22L1234.74 531.22L1234.74 581.22L1191.44 606.22L1148.13 581.22L1148.13 531.22zM1278.04 206.22L1321.35 231.22L1321.35 281.22L1278.04 306.22L1234.74 281.22L1234.74 231.22zM1278.04 356.22L1321.35 381.22L1321.35 431.22L1278.04 456.22L1234.74 431.22L1234.74 381.22zM1364.65 206.22L1407.95 231.22L1407.95 281.22L1364.65 306.22L1321.35 281.22L1321.35 231.22zM1407.95 131.22L1451.25 156.22L1451.25 206.22L1407.95 231.22L1364.65 206.22L1364.65 156.22zM1451.25 206.22L1494.56 231.22L1494.56 281.22L1451.25 306.22L1407.95 281.22L1407.95 231.22z"
            stroke="rgba(12, 74, 110, 0.58)" stroke-width="2"></path>
    </g>
    <defs>
        <mask id="SvgjsMask1010">
            <rect width="1440" height="560" fill="#ffffff"></rect>
        </mask>
    </defs>
</svg>